<svg xmlns="http://www.w3.org/2000/svg" width="643" height="71" viewBox="0 0 643 71">
  <g fill="none" fill-rule="evenodd">
    <polygon fill="#37B685" points="56.16 69.2 56.16 29.168 38.976 49.52 35.616 49.52 18.816 29.264 18.816 69.2 0 69.2 0 2 19.872 2 37.536 24.752 55.2 2 74.976 2 74.976 69.2"/>
    <path fill="#37B685" d="M123.448 2L142.36 2 142.36 39.536C142.456 59.408 130.36 70.544 110.68 70.544 91 70.544 79 59.888 79 39.344L79 2 97.912 2 97.912 39.344C97.912 49.904 103 54.32 110.68 54.32 118.36 54.32 123.448 49.712 123.448 39.536L123.448 2zM199.392 7.968L189.984 19.968C185.376 16.512 180.096 15.36 174.24 15.36 169.632 15.36 165.12 16.8 165.12 20.352 165.12 24.96 169.632 25.632 176.256 26.304 189.6 27.744 203.52 33.12 203.52 48.576 203.52 63.84 189.12 70.368 174.048 70.464 161.952 70.56 153.312 68.448 144 58.656L154.464 46.656C161.088 53.088 168.48 54.24 174.144 54.24 180.384 54.24 184.704 52.032 184.704 48.288 184.704 44.928 180.864 42.816 173.472 42.144 158.784 40.8 146.112 37.056 146.112 20.352 146.112 6.144 160.032 0 174.24 0 184.32 0 192.192 2.304 199.392 7.968z"/>
    <polygon fill="#37B685" points="228.912 69.2 210 69.2 210 2 228.912 2"/>
    <path fill="#37B685" d="M325.424,2 L325.424,3.152 L298.16,34.928 C307.568,45.296 318.416,57.392 327.728,68.048 L327.728,69.2 L304.208,69.2 L285.008,46.832 L285.008,69.2 L266,69.2 L266,2 L285.008,2 L285.008,24.08 C290.768,16.976 297.008,9.104 302.672,2 L325.424,2 Z"/>
    <polygon fill="#324A5E" points="403 2 422.008 2 422.008 53.072 454.168 53.072 454.168 69.2 403 69.2"/>
    <path fill="#324A5E" d="M598.168,10.848 L587.128,21.792 C582.232,17.184 576.28,15.936 571.768,15.936 C560.824,15.936 553.72,22.464 553.72,35.616 C553.72,44.256 558.232,54.912 571.768,54.912 C575.32,54.912 580.888,54.24 584.728,51.456 L584.728,42.816 L567.736,42.816 L567.736,27.936 L600.568,27.936 L600.568,57.792 C596.344,66.336 584.632,70.944 571.672,70.944 C545.08,70.944 535,53.184 535,35.616 C535,18.048 546.52,0 571.768,0 C581.08,0 589.336,1.92 598.168,10.848 Z"/>
    <path fill="#37B685" d="M612.478917,40.0168656 C619.839376,40.0168656 619.894718,30 612.478917,30 C605.118457,30 605.229141,40.0168656 612.478917,40.0168656 Z"/>
    <polygon fill="#37B685" points="642.96 38.528 642.96 41.2 634 41.2 634 30 642.736 30 642.736 32.656 637.12 32.656 637.12 34.256 642.416 34.256 642.416 36.832 637.12 36.832 637.12 38.528"/>
    <path fill="#37B685" d="M622,30 L626.8,30 C630.752,30 632.656,32.432 632.656,35.52 C632.656,38.608 630.816,41.2 626.8,41.2 L622,41.2 L622,30 Z M625.136,32.64 L625.136,38.528 L626.8,38.528 C628.816,38.528 629.52,37.024 629.52,35.488 C629.52,33.952 628.736,32.64 626.8,32.64 L625.136,32.64 Z"/>
    <path fill="#324A5E" d="M530.688 35.232C530.688 57.696 515.424 70.464 493.344 70.464 471.36 70.464 456 57.696 456 35.232 456 13.152 471.36 0 493.344 0 515.424 0 530.688 12.864 530.688 35.232zM514.68 30.232C514.68 18.712 507.48 11.224 496.344 11.224 485.496 11.224 478.008 19.096 478.008 30.232 478.008 41.464 485.592 49.24 496.344 49.24 507.48 49.24 514.68 41.368 514.68 30.232zM335 2L369.368 2C382.808 2 393.752 7.952 393.752 20.816 393.752 25.904 392.216 31.184 386.36 33.872 392.6 37.232 395.672 43.472 395.672 49.52 395.672 64.592 381.944 69.104 369.656 69.2L335 69.2 335 2zM357.72 38.648L357.72 51.416 373.752 51.416C378.552 51.416 380.856 48.824 380.856 45.08 380.856 41.432 378.456 38.648 373.752 38.648L357.72 38.648zM357.72 14.36L357.72 24.632 372.888 24.632C376.824 24.632 378.936 22.616 378.936 19.64 378.936 16.664 376.824 14.36 373.08 14.36L357.72 14.36z"/>
    <polygon fill="#37B685" points="263 2 264 67.5 235 34.751" transform="matrix(-1 0 0 1 499 0)"/>
  </g>
</svg>
